# Blender 4.2.0
# www.blender.org
mtllib tetrahedron.mtl
o Circle
v 0.000000 0.000000 -1.000000
v -0.866025 0.000000 0.500000
v 0.866025 0.000000 0.500000
v 0.000000 1.000000 0.000000
vn 0.7746 0.4472 -0.4472
vn -0.0000 0.4472 0.8944
vn -0.7746 0.4472 -0.4472
vn -0.0000 -1.0000 -0.0000
vt 0.001001 0.497998
vt 0.001001 0.001001
vt 0.997998 0.001001
vt 0.998999 0.002002
vt 0.998999 0.498999
vt 0.002002 0.498999
vt 0.001001 0.997998
vt 0.001001 0.501001
vt 0.997998 0.501001
vt 0.002002 0.998999
vt 0.998999 0.998999
vt 0.998999 0.502002
s 0
f 1/1/1 4/2/1 3/3/1
f 3/4/2 4/5/2 2/6/2
f 2/7/3 4/8/3 1/9/3
f 2/10/4 1/11/4 3/12/4
